<?xml version="1.0" encoding="utf-8"?>
<!-- Generator: Adobe Illustrator 24.3.2, SVG Export Plug-In . SVG Version: 6.00 Build 0)  -->
<svg version="1.1" id="Calque_1" xmlns="http://www.w3.org/2000/svg" xmlns:xlink="http://www.w3.org/1999/xlink" x="0px" y="0px"
	 viewBox="0 0 116 50" style="enable-background:new 0 0 116 50;" xml:space="preserve">
<style type="text/css">
	.st0{fill:#FFFFFF;}
	.st1{fill:url(#SVGID_1_);}
	.st2{fill:url(#SVGID_2_);}
	.st3{fill:url(#SVGID_3_);}
	.st4{fill:url(#SVGID_4_);}
	.st5{fill:url(#SVGID_5_);}
	.st6{fill:url(#SVGID_6_);}
	.st7{fill:url(#SVGID_7_);}
	.st8{fill:url(#SVGID_8_);}
</style>
<g id="LOGO">
	<g>
		<g>
			<path class="st0" d="M62.48,34.85c0-1.98,1.61-3.6,3.6-3.6c1.45,0,2.66,0.76,3.26,1.9l-1.37,0.75c-0.39-0.7-1.01-1.14-1.88-1.14
				c-1.14,0-2.03,0.96-2.03,2.09s0.89,2.09,2.03,2.09c0.87,0,1.49-0.44,1.88-1.14l1.37,0.75c-0.6,1.15-1.81,1.9-3.26,1.9
				C64.09,38.45,62.48,36.83,62.48,34.85z"/>
			<path class="st0" d="M69.82,35.88c0-1.44,1.17-2.56,2.58-2.56c1.41,0,2.58,1.12,2.58,2.56c0,1.44-1.17,2.56-2.58,2.56
				C70.99,38.44,69.82,37.32,69.82,35.88z M73.49,35.88c0-0.7-0.47-1.18-1.09-1.18s-1.09,0.48-1.09,1.18s0.47,1.18,1.09,1.18
				S73.49,36.57,73.49,35.88z"/>
			<path class="st0" d="M75.89,33.42h1.48v0.5c0.26-0.34,0.68-0.61,1.26-0.61c0.71,0,1.22,0.32,1.52,0.86
				c0.31-0.6,0.99-0.86,1.5-0.86c1.2,0,1.86,0.85,1.86,2.22v2.8h-1.48v-2.54c0-0.72-0.21-1.13-0.71-1.13
				c-0.52,0-0.88,0.39-0.88,1.29v2.38h-1.48v-2.54c0-0.72-0.21-1.13-0.71-1.13c-0.52,0-0.88,0.39-0.88,1.29v2.38h-1.48V33.42z"/>
			<path class="st0" d="M84.67,33.42h1.48v0.49c0.2-0.26,0.68-0.6,1.33-0.6c1.29,0,2.28,1.17,2.28,2.56c0,1.39-0.99,2.56-2.28,2.56
				c-0.66,0-1.14-0.33-1.33-0.6v2.54h-1.48V33.42z M88.27,35.88c0-0.71-0.45-1.22-1.12-1.22c-0.67,0-1.12,0.51-1.12,1.22
				c0,0.71,0.45,1.22,1.12,1.22C87.82,37.09,88.27,36.58,88.27,35.88z"/>
			<path class="st0" d="M90.39,35.88c0-1.39,0.99-2.56,2.28-2.56c0.66,0,1.14,0.33,1.33,0.6v-0.49h1.48v4.91H94v-0.49
				c-0.2,0.27-0.68,0.6-1.33,0.6C91.38,38.44,90.39,37.27,90.39,35.88z M94.12,35.88c0-0.71-0.45-1.22-1.12-1.22
				c-0.67,0-1.12,0.51-1.12,1.22c0,0.71,0.45,1.22,1.12,1.22C93.67,37.09,94.12,36.58,94.12,35.88z"/>
			<path class="st0" d="M96.56,39.75l0.78-1.11c0.44,0.38,1,0.54,1.48,0.54c0.78,0,1.22-0.56,1.22-1.25v-0.27
				c-0.23,0.33-0.74,0.6-1.33,0.6c-1.26,0-2.3-1.1-2.3-2.47c0-1.37,1.04-2.47,2.3-2.47c0.6,0,1.11,0.26,1.33,0.6v-0.49h1.48v4.49
				c0,1.82-1.15,2.56-2.68,2.56C98.05,40.48,97.16,40.27,96.56,39.75z M100.15,35.79c0-0.69-0.53-1.13-1.13-1.13
				c-0.6,0-1.13,0.44-1.13,1.13c0,0.69,0.53,1.13,1.13,1.13C99.62,36.92,100.15,36.48,100.15,35.79z"/>
			<path class="st0" d="M102.72,33.42h1.48v0.5c0.24-0.33,0.73-0.61,1.36-0.61c1.21,0,1.9,0.89,1.9,2.18v2.84h-1.48v-2.58
				c0-0.68-0.26-1.09-0.79-1.09c-0.56,0-0.99,0.4-0.99,1.29v2.38h-1.48V33.42z"/>
			<path class="st0" d="M108.46,32.17c0-0.49,0.39-0.88,0.88-0.88c0.49,0,0.88,0.39,0.88,0.88c0,0.22-0.07,0.41-0.2,0.56h-1.37
				C108.52,32.58,108.46,32.38,108.46,32.17z M108.59,33.42h1.48v4.91h-1.48V33.42z"/>
			<path class="st0" d="M110.98,35.88c0-1.46,1.09-2.56,2.58-2.56c1.3,0,2.44,0.8,2.44,2.39c0,0.13,0,0.29-0.03,0.52h-3.56
				c0.09,0.59,0.64,0.86,1.2,0.86c0.57,0,1-0.27,1.19-0.56l1.1,0.82c-0.46,0.65-1.28,1.08-2.31,1.08
				C112.14,38.44,110.98,37.46,110.98,35.88z M112.45,35.26h2.08c-0.13-0.52-0.58-0.74-1.01-0.74
				C113.09,34.52,112.58,34.72,112.45,35.26z"/>
		</g>
		<g>
			<path class="st0" d="M62.48,42.86h4.29v1.49h-2.73v1.26h2.13v1.49h-2.13v2.73h-1.56V42.86z"/>
			<path class="st0" d="M67.54,43.66c0-0.49,0.39-0.88,0.88-0.88c0.49,0,0.88,0.39,0.88,0.88c0,0.22-0.07,0.41-0.2,0.56h-1.37
				C67.6,44.08,67.54,43.88,67.54,43.66z M67.67,44.92h1.48v4.91h-1.48V44.92z"/>
			<path class="st0" d="M70.06,47.37c0-1.39,0.99-2.56,2.28-2.56c0.66,0,1.14,0.33,1.33,0.6v-2.94h1.48v7.36h-1.48v-0.49
				c-0.2,0.27-0.68,0.6-1.33,0.6C71.05,49.93,70.06,48.77,70.06,47.37z M73.78,47.37c0-0.71-0.45-1.22-1.12-1.22
				c-0.67,0-1.12,0.51-1.12,1.22c0,0.71,0.45,1.22,1.12,1.22C73.33,48.59,73.78,48.08,73.78,47.37z"/>
			<path class="st0" d="M76.3,47.72v-2.8h1.48v2.54c0,0.72,0.21,1.13,0.76,1.13c0.56,0,0.92-0.38,0.92-1.29v-2.38h1.48v4.91h-1.48
				v-0.5c-0.24,0.34-0.67,0.61-1.31,0.61C76.94,49.93,76.3,49.05,76.3,47.72z"/>
			<path class="st0" d="M81.87,47.37c0-1.5,1.17-2.56,2.61-2.56c1.02,0,1.92,0.58,2.35,1.43l-1.3,0.69
				c-0.18-0.42-0.56-0.74-1.05-0.74c-0.62,0-1.12,0.48-1.12,1.18s0.5,1.18,1.12,1.18c0.49,0,0.87-0.31,1.05-0.74l1.3,0.69
				c-0.42,0.85-1.32,1.43-2.35,1.43C83.03,49.93,81.87,48.87,81.87,47.37z"/>
			<path class="st0" d="M87.45,43.66c0-0.49,0.39-0.88,0.88-0.88c0.49,0,0.88,0.39,0.88,0.88c0,0.22-0.07,0.41-0.2,0.56h-1.37
				C87.51,44.08,87.45,43.88,87.45,43.66z M87.58,44.92h1.48v4.91h-1.48V44.92z"/>
			<path class="st0" d="M89.97,47.37c0-1.39,0.99-2.56,2.28-2.56c0.66,0,1.14,0.33,1.33,0.6v-0.49h1.48v4.91h-1.48v-0.49
				c-0.2,0.27-0.68,0.6-1.33,0.6C90.96,49.93,89.97,48.77,89.97,47.37z M93.7,47.37c0-0.71-0.45-1.22-1.12-1.22
				c-0.67,0-1.12,0.51-1.12,1.22c0,0.71,0.45,1.22,1.12,1.22C93.24,48.59,93.7,48.08,93.7,47.37z"/>
			<path class="st0" d="M96.11,43.66c0-0.49,0.39-0.88,0.88-0.88s0.88,0.39,0.88,0.88c0,0.22-0.07,0.41-0.2,0.56H96.3
				C96.18,44.08,96.11,43.88,96.11,43.66z M96.24,44.92h1.48v4.91h-1.48V44.92z"/>
			<path class="st0" d="M98.92,44.92h1.48v0.74c0.16-0.43,0.63-0.79,1.17-0.79c0.15,0,0.3,0.01,0.48,0.06v1.5
				c-0.23-0.08-0.42-0.12-0.66-0.12c-0.64,0-0.99,0.49-0.99,1.2v2.33h-1.48V44.92z"/>
			<path class="st0" d="M102.4,47.37c0-1.46,1.09-2.56,2.58-2.56c1.3,0,2.44,0.8,2.44,2.39c0,0.13,0,0.29-0.03,0.52h-3.56
				c0.09,0.59,0.64,0.86,1.2,0.86c0.57,0,1-0.27,1.19-0.56l1.1,0.82c-0.46,0.65-1.28,1.08-2.31,1.08
				C103.57,49.93,102.4,48.95,102.4,47.37z M103.88,46.75h2.08c-0.13-0.52-0.58-0.74-1.01-0.74C104.51,46.02,104,46.22,103.88,46.75
				z"/>
		</g>
		<g>
			<path class="st0" d="M62.48,12.51c0-6.88,5.61-12.49,12.49-12.49c4.2,0,7.95,2.1,10.22,5.3l-4.16,3.41
				c-1.24-2-3.44-3.41-6.06-3.41c-3.96,0-6.95,3.27-6.95,7.19s2.99,7.19,6.95,7.19c2.62,0,4.82-1.41,6.06-3.41l4.16,3.41
				c-2.27,3.2-6.02,5.3-10.22,5.3C68.09,25,62.48,19.39,62.48,12.51z"/>
			<path class="st0" d="M89.33,0.29h14.45v5.44h-8.95v4.13h6.88v5.3h-6.88v9.57h-5.51V0.29z"/>
		</g>
	</g>
	<g>
		<linearGradient id="SVGID_1_" gradientUnits="userSpaceOnUse" x1="19.8328" y1="12.5088" x2="0.359" y2="1.2656">
			<stop  offset="0" style="stop-color:#F2F2F2;stop-opacity:0"/>
			<stop  offset="0.1207" style="stop-color:#F8F8F8;stop-opacity:0.1207"/>
			<stop  offset="0.3827" style="stop-color:#FDFDFD;stop-opacity:0.3827"/>
			<stop  offset="1" style="stop-color:#FFFFFF"/>
		</linearGradient>
		<path class="st1" d="M21.08,10.34l-2.5,4.33l-17.32-10c-1.19-0.69-1.6-2.21-0.91-3.41s2.21-1.61,3.41-0.92L21.08,10.34z"/>
		
			<linearGradient id="SVGID_2_" gradientUnits="userSpaceOnUse" x1="9.4677" y1="277.3086" x2="-10.0061" y2="266.0654" gradientTransform="matrix(0.7071 -0.7071 0.7071 0.7071 -180.9538 -169.5721)">
			<stop  offset="0" style="stop-color:#F2F2F2;stop-opacity:0"/>
			<stop  offset="0.1207" style="stop-color:#F8F8F8;stop-opacity:0.1207"/>
			<stop  offset="0.3827" style="stop-color:#FDFDFD;stop-opacity:0.3827"/>
			<stop  offset="1" style="stop-color:#FFFFFF"/>
		</linearGradient>
		<path class="st2" d="M21.18,17.4l1.3,4.83L3.16,27.41c-1.33,0.36-2.7-0.44-3.05-1.77s0.43-2.7,1.76-3.06L21.18,17.4z"/>
		
			<linearGradient id="SVGID_3_" gradientUnits="userSpaceOnUse" x1="-197.5238" y1="445.4431" x2="-216.9976" y2="434.1998" gradientTransform="matrix(0 -1 1 0 -432.9339 -167.3507)">
			<stop  offset="0" style="stop-color:#F2F2F2;stop-opacity:0"/>
			<stop  offset="0.1207" style="stop-color:#F8F8F8;stop-opacity:0.1207"/>
			<stop  offset="0.3827" style="stop-color:#FDFDFD;stop-opacity:0.3827"/>
			<stop  offset="1" style="stop-color:#FFFFFF"/>
		</linearGradient>
		<path class="st3" d="M10.34,28.92l4.33,2.5l-10,17.32c-0.69,1.19-2.21,1.6-3.41,0.91c-1.19-0.69-1.61-2.21-0.92-3.41L10.34,28.92z
			"/>
		
			<linearGradient id="SVGID_4_" gradientUnits="userSpaceOnUse" x1="-652.16" y1="220.0835" x2="-671.6338" y2="208.8402" gradientTransform="matrix(-1 0 0 -1 -621.9792 257.5746)">
			<stop  offset="0" style="stop-color:#F2F2F2;stop-opacity:0"/>
			<stop  offset="0.1207" style="stop-color:#F8F8F8;stop-opacity:0.1207"/>
			<stop  offset="0.3827" style="stop-color:#FDFDFD;stop-opacity:0.3827"/>
			<stop  offset="1" style="stop-color:#FFFFFF"/>
		</linearGradient>
		<path class="st4" d="M28.93,39.66l2.5-4.33l17.32,10c1.19,0.69,1.6,2.21,0.91,3.41s-2.21,1.61-3.41,0.92L28.93,39.66z"/>
		
			<linearGradient id="SVGID_5_" gradientUnits="userSpaceOnUse" x1="-617.9812" y1="-55.6529" x2="-637.4551" y2="-66.8961" gradientTransform="matrix(-0.7071 0.7071 -0.7071 -0.7071 -448.1473 427.7944)">
			<stop  offset="0" style="stop-color:#F2F2F2;stop-opacity:0"/>
			<stop  offset="0.1207" style="stop-color:#F8F8F8;stop-opacity:0.1207"/>
			<stop  offset="0.3827" style="stop-color:#FDFDFD;stop-opacity:0.3827"/>
			<stop  offset="1" style="stop-color:#FFFFFF"/>
		</linearGradient>
		<path class="st5" d="M28.83,32.58l-1.3-4.83l19.31-5.17c1.33-0.36,2.7,0.44,3.05,1.77c0.36,1.33-0.43,2.7-1.76,3.06L28.83,32.58z"
			/>
		
			<linearGradient id="SVGID_6_" gradientUnits="userSpaceOnUse" x1="-400.0944" y1="-207.9147" x2="-419.5682" y2="-219.158" gradientTransform="matrix(0 1 -1 0 -170.4159 419.9214)">
			<stop  offset="0" style="stop-color:#F2F2F2;stop-opacity:0"/>
			<stop  offset="0.1207" style="stop-color:#F8F8F8;stop-opacity:0.1207"/>
			<stop  offset="0.3827" style="stop-color:#FDFDFD;stop-opacity:0.3827"/>
			<stop  offset="1" style="stop-color:#FFFFFF"/>
		</linearGradient>
		<path class="st6" d="M39.67,21.08l-4.33-2.5l10-17.32c0.69-1.19,2.21-1.6,3.41-0.91s1.61,2.21,0.92,3.41L39.67,21.08z"/>
		<g>
			<linearGradient id="SVGID_7_" gradientUnits="userSpaceOnUse" x1="20.701" y1="27.5019" x2="20.701" y2="49.9853">
				<stop  offset="0" style="stop-color:#F2F2F2;stop-opacity:0"/>
				<stop  offset="0.1207" style="stop-color:#F8F8F8;stop-opacity:0.1207"/>
				<stop  offset="0.3827" style="stop-color:#FDFDFD;stop-opacity:0.3827"/>
				<stop  offset="1" style="stop-color:#FFFFFF"/>
			</linearGradient>
			<path class="st7" d="M18.1,27.56l5-0.06l0.21,19.97c0.02,1.38-1.09,2.5-2.47,2.52s-2.51-1.09-2.52-2.46L18.1,27.56z"/>
		</g>
		<g>
			<linearGradient id="SVGID_8_" gradientUnits="userSpaceOnUse" x1="29.5778" y1="22.4981" x2="29.5778" y2="0.0147">
				<stop  offset="0" style="stop-color:#F2F2F2;stop-opacity:0"/>
				<stop  offset="0.1207" style="stop-color:#F8F8F8;stop-opacity:0.1207"/>
				<stop  offset="0.3827" style="stop-color:#FDFDFD;stop-opacity:0.3827"/>
				<stop  offset="1" style="stop-color:#FFFFFF"/>
			</linearGradient>
			<path class="st8" d="M32.18,22.44l-5,0.06L26.97,2.53c-0.02-1.38,1.09-2.5,2.47-2.52s2.51,1.09,2.52,2.46L32.18,22.44z"/>
		</g>
	</g>
</g>
</svg>
